<svg xmlns="http://www.w3.org/2000/svg" width="1024" height="1024" viewBox="0 0 1024 1024">
    <defs>
      <linearGradient id="lnc3e-border" x1="150" y1="120" x2="874" y2="904" gradientUnits="userSpaceOnUse">
        <stop offset="0" stop-color="#22D6FF"/>
        <stop offset="0.34" stop-color="#5F85FF"/>
        <stop offset="0.66" stop-color="#8A62FF"/>
        <stop offset="1" stop-color="#4FE0B9"/>
      </linearGradient>
      <linearGradient id="lnc3e-border-hot" x1="170" y1="870" x2="880" y2="150" gradientUnits="userSpaceOnUse">
        <stop offset="0" stop-color="#8B62FF"/>
        <stop offset="0.45" stop-color="#21D6FF"/>
        <stop offset="1" stop-color="#FFC64E"/>
      </linearGradient>
      <linearGradient id="lnc3e-thread-a" x1="140" y1="160" x2="890" y2="860" gradientUnits="userSpaceOnUse">
        <stop offset="0" stop-color="#26D9FF"/>
        <stop offset="0.48" stop-color="#5AF0CF"/>
        <stop offset="1" stop-color="#8562FF"/>
      </linearGradient>
      <linearGradient id="lnc3e-thread-b" x1="160" y1="850" x2="858" y2="150" gradientUnits="userSpaceOnUse">
        <stop offset="0" stop-color="#8C65FF"/>
        <stop offset="0.50" stop-color="#22CCF4"/>
        <stop offset="1" stop-color="#4CDDA8"/>
      </linearGradient>
      <linearGradient id="lnc3e-thread-c" x1="116" y1="512" x2="908" y2="512" gradientUnits="userSpaceOnUse">
        <stop offset="0" stop-color="#43DFA6"/>
        <stop offset="0.48" stop-color="#26D9FF"/>
        <stop offset="1" stop-color="#FFC64E"/>
      </linearGradient>
      <radialGradient id="lnc3e-core" cx="48%" cy="35%" r="68%">
        <stop offset="0" stop-color="#F9FFF5"/>
        <stop offset="0.22" stop-color="#8DF8D9"/>
        <stop offset="0.56" stop-color="#25D0F5"/>
        <stop offset="1" stop-color="#765EFF"/>
      </radialGradient>
      <radialGradient id="lnc3e-core-warm" cx="43%" cy="32%" r="72%">
        <stop offset="0" stop-color="#FFF4B8"/>
        <stop offset="0.35" stop-color="#77F5D2"/>
        <stop offset="0.70" stop-color="#27C8FF"/>
        <stop offset="1" stop-color="#8460FF"/>
      </radialGradient>
      <radialGradient id="lnc3e-node-cyan" cx="34%" cy="30%" r="72%">
        <stop offset="0" stop-color="#CFFFFF"/>
        <stop offset="0.40" stop-color="#22D6FF"/>
        <stop offset="1" stop-color="#565CFF"/>
      </radialGradient>
      <filter id="lnc3e-soft" x="-70%" y="-70%" width="240%" height="240%">
        <feGaussianBlur stdDeviation="8" result="blur"/>
        <feColorMatrix in="blur" type="matrix" values="0 0 0 0 0.0  0 0 0 0 0.86  0 0 0 0 1  0 0 0 0.46 0" result="glow"/>
        <feMerge>
<feMergeNode in="glow"/>
<feMergeNode in="SourceGraphic"/>
</feMerge>
      </filter>
      <filter id="lnc3e-strong" x="-90%" y="-90%" width="280%" height="280%">
        <feGaussianBlur stdDeviation="14" result="blur"/>
        <feColorMatrix in="blur" type="matrix" values="0 0 0 0 0.20  0 0 0 0 0.95  0 0 0 0 1  0 0 0 0.68 0" result="glow"/>
        <feMerge>
<feMergeNode in="glow"/>
<feMergeNode in="SourceGraphic"/>
</feMerge>
      </filter>
      <clipPath id="lnc3e-hexclip">
<polygon points="512.0,128.0 844.6,320.0 844.6,704.0 512.0,896.0 179.4,704.0 179.4,320.0"/>
</clipPath>
    </defs>
    <g>
      <polygon points="512.0,92.0 875.7,302.0 875.7,722.0 512.0,932.0 148.3,722.0 148.3,302.0" fill="#07101E" />
      <g clip-path="url(#lnc3e-hexclip)">
        <rect x="80" y="80" width="864" height="864" fill="#06101D"/>
        <circle cx="512" cy="512" r="360" fill="#0E3651" opacity="0.28"/>
        <circle cx="512" cy="512" r="245" fill="#10194B" opacity="0.20"/>
        <path d="M 150 642 C 330 520, 620 620, 878 414 L 878 878 L 150 878 Z" fill="#1A597E" opacity="0.13"/>
        <path d="M 150 312 C 348 470, 578 245, 878 390 L 878 140 L 150 140 Z" fill="#27D7FF" opacity="0.08"/>
        <polygon points="512.0,208.0 775.3,360.0 775.3,664.0 512.0,816.0 248.7,664.0 248.7,360.0" fill="none" stroke="#274462" stroke-width="2" opacity="0.42"/>
      </g>
      <polygon points="512.0,156.0 820.3,334.0 820.3,690.0 512.0,868.0 203.7,690.0 203.7,334.0" fill="none" stroke="url(#lnc3e-border)" stroke-width="24" stroke-linejoin="round" />
      <polygon points="512.0,220.0 764.9,366.0 764.9,658.0 512.0,804.0 259.1,658.0 259.1,366.0" fill="none" stroke="#3A5B7F" stroke-width="2.4" stroke-linejoin="round" opacity="0.3" />

      
      <g id="symmetric-agent-weave">
        <circle cx="512" cy="512" r="320" fill="#0E3651" opacity="0.18" />
        <circle cx="512" cy="512" r="214" fill="none" stroke="#2A4E70" stroke-width="2" opacity="0.26"/>
        <circle cx="512" cy="512" r="146" fill="none" stroke="#32D7FF" stroke-width="2.4" opacity="0.16"/>

        
        <path d="M 248.7 360 C 362 406, 446 456, 512 512 C 578 568, 662 618, 775.3 664" fill="none" stroke="url(#lnc3e-thread-a)" stroke-width="8" stroke-linecap="round" stroke-linejoin="round" opacity="0.22" />
        <path d="M 775.3 360 C 662 406, 578 456, 512 512 C 446 568, 362 618, 248.7 664" fill="none" stroke="url(#lnc3e-thread-b)" stroke-width="8" stroke-linecap="round" stroke-linejoin="round" opacity="0.22" />
        <path d="M 512 208 C 494 330, 530 428, 512 512 C 494 596, 530 694, 512 816" fill="none" stroke="url(#lnc3e-thread-c)" stroke-width="8" stroke-linecap="round" stroke-linejoin="round" opacity="0.20" />

        
        <path d="M 248.7 360 C 348 374, 438 421, 474 482" fill="none" stroke="url(#lnc3e-thread-a)" stroke-width="16" stroke-linecap="round" stroke-linejoin="round" opacity="0.62" />
        <path d="M 775.3 664 C 676 650, 586 603, 550 542" fill="none" stroke="url(#lnc3e-thread-a)" stroke-width="16" stroke-linecap="round" stroke-linejoin="round" opacity="0.62" />
        <path d="M 775.3 360 C 676 374, 586 421, 550 482" fill="none" stroke="url(#lnc3e-thread-b)" stroke-width="16" stroke-linecap="round" stroke-linejoin="round" opacity="0.62" />
        <path d="M 248.7 664 C 348 650, 438 603, 474 542" fill="none" stroke="url(#lnc3e-thread-b)" stroke-width="16" stroke-linecap="round" stroke-linejoin="round" opacity="0.62" />
        <path d="M 512 208 C 512 320, 526 412, 512 472" fill="none" stroke="url(#lnc3e-thread-c)" stroke-width="16" stroke-linecap="round" stroke-linejoin="round" opacity="0.58" />
        <path d="M 512 816 C 512 704, 498 612, 512 552" fill="none" stroke="url(#lnc3e-thread-c)" stroke-width="16" stroke-linecap="round" stroke-linejoin="round" opacity="0.58" />
      </g>

      
      <g filter="url(#lnc3e-soft)">
        <circle cx="248.7" cy="360.0" r="33" fill="#F7FBFF" opacity="0.96"/>
        <circle cx="248.7" cy="360.0" r="23" fill="#24D8FF" />
        <circle cx="240.9" cy="352.2" r="5.8" fill="#DFFFFF" opacity="0.72" />
        <circle cx="248.7" cy="360.0" r="33" fill="none" stroke="#FFFFFF" stroke-width="5" opacity="0.96"/>
      </g>
      <g filter="url(#lnc3e-soft)">
        <circle cx="512.0" cy="208.0" r="33" fill="#F7FBFF" opacity="0.96"/>
        <polygon points="512.0,185.0 531.9,196.5 531.9,219.5 512.0,231.0 492.1,219.5 492.1,196.5" fill="#8A64FF" />
        <polygon points="512.0,199.7 519.2,203.9 519.2,212.1 512.0,216.3 504.8,212.1 504.8,203.9" fill="#DFFFFF" opacity="0.55" />
        <circle cx="512.0" cy="208.0" r="33" fill="none" stroke="#FFFFFF" stroke-width="5" opacity="0.96"/>
      </g>
      <g filter="url(#lnc3e-soft)">
        <circle cx="775.3" cy="360.0" r="33" fill="#F7FBFF" opacity="0.96"/>
        <polygon points="790.2,375.0 760.3,375.0 760.3,345.0 790.2,345.0" fill="#44DDA6" />
        <polygon points="780.8,365.5 769.7,365.5 769.7,354.5 780.8,354.5" fill="#DFFFFF" opacity="0.55" />
        <circle cx="775.3" cy="360.0" r="33" fill="none" stroke="#FFFFFF" stroke-width="5" opacity="0.96"/>
      </g>
      <g filter="url(#lnc3e-soft)">
        <circle cx="775.3" cy="664.0" r="33" fill="#F7FBFF" opacity="0.96"/>
        <rect x="752.3" y="641.0" width="46" height="46" rx="10.3" fill="#FFC64E"/>
        <rect x="767.5" y="656.2" width="15.6" height="15.6" rx="4.1" fill="#DFFFFF" opacity="0.52"/>
        <circle cx="775.3" cy="664.0" r="33" fill="none" stroke="#FFFFFF" stroke-width="5" opacity="0.96"/>
      </g>
      <g filter="url(#lnc3e-soft)">
        <circle cx="512.0" cy="816.0" r="33" fill="#F7FBFF" opacity="0.96"/>
        <circle cx="512.0" cy="816.0" r="23" fill="#24D8FF" />
        <circle cx="504.2" cy="808.2" r="5.8" fill="#DFFFFF" opacity="0.72" />
        <circle cx="512.0" cy="816.0" r="33" fill="none" stroke="#FFFFFF" stroke-width="5" opacity="0.96"/>
      </g>
      <g filter="url(#lnc3e-soft)">
        <circle cx="248.7" cy="664.0" r="33" fill="#F7FBFF" opacity="0.96"/>
        <polygon points="248.7,639.9 269.6,676.1 227.8,676.1" fill="#8A64FF" />
        <circle cx="248.7" cy="661.7" r="5.1" fill="#DFFFFF" opacity="0.64" />
        <circle cx="248.7" cy="664.0" r="33" fill="none" stroke="#FFFFFF" stroke-width="5" opacity="0.96"/>
      </g>

      
      <g filter="url(#lnc3e-strong)">
        <circle cx="512" cy="512" r="118" fill="#071325" opacity="0.56"/>
        <circle cx="512" cy="512" r="114" fill="none" stroke="#2ADFFF" stroke-width="3.2" opacity="0.28"/>
        <circle cx="512" cy="512" r="82" fill="#061527" opacity="0.34"/>
        <path d="M 390 512 C 438 410, 498 410, 512 512 C 526 614, 586 614, 634 512 C 586 410, 526 410, 512 512 C 498 614, 438 614, 390 512 Z" fill="none" stroke="#061527" stroke-width="50" stroke-linecap="round" stroke-linejoin="round" opacity="0.44"/>
        <path d="M 390 512 C 438 410, 498 410, 512 512 C 526 614, 586 614, 634 512 C 586 410, 526 410, 512 512 C 498 614, 438 614, 390 512 Z" fill="none" stroke="url(#lnc3e-core)" stroke-width="34" stroke-linecap="round" stroke-linejoin="round" opacity="0.98"/>
        <path d="M 400 512 C 445 438, 492 438, 512 512 C 532 586, 579 586, 624 512" fill="none" stroke="#FFFFFF" stroke-width="8" stroke-linecap="round" opacity="0.34"/>
        <path d="M 512 512 C 530 587, 577 587, 622 512" fill="none" stroke="#071325" stroke-width="12" stroke-linecap="round" opacity="0.42"/>
        <circle cx="512" cy="512" r="36" fill="url(#lnc3e-core-warm)" stroke="#9FFFEF" stroke-width="4.5"/>
        <circle cx="491" cy="490" r="12" fill="#FFFFFF" opacity="0.54"/>
        <circle cx="512" cy="512" r="8" fill="#071325" opacity="0.28"/>
      </g>
    </g>
</svg>
